<mxfile host="65bd71144e">
    <diagram name="State Diagram" id="0">
        <mxGraphModel dx="948" dy="719" grid="0" gridSize="10" guides="1" tooltips="1" connect="0" arrows="1" fold="1" page="1" pageScale="1" pageWidth="1169" pageHeight="827" background="#1F1F1F" math="0" shadow="0">
            <root>
                <mxCell id="0"/>
                <mxCell id="1" parent="0" type="layer"/>
                <mxCell id="13" value="TIMEOUT" style="edgeStyle=none;rounded=1;html=1;exitX=0.75;exitY=1;exitDx=0;exitDy=0;entryX=0.75;entryY=0;entryDx=0;entryDy=0;strokeColor=#FFFFFF;" parent="1" source="WAITING" target="TIMEOUT" edge="1">
                    <mxGeometry x="-0.5086" relative="1" as="geometry">
                        <Array as="points">
                            <mxPoint x="401" y="134"/>
                            <mxPoint x="401" y="174"/>
                            <mxPoint x="401" y="244"/>
                        </Array>
                        <mxPoint as="offset"/>
                    </mxGeometry>
                </mxCell>
                <mxCell id="WAITING" value="WAITING" style="rounded=1;whiteSpace=wrap;html=1;strokeColor=#FFFFFF;" parent="1" vertex="1">
                    <mxGeometry x="311" y="34" width="100" height="60" as="geometry"/>
                </mxCell>
                <mxCell id="W_PVUPDATE" value="W_PVUPDATE" style="rounded=1;whiteSpace=wrap;html=1;strokeColor=#FFFFFF;" parent="1" vertex="1">
                    <mxGeometry x="541" y="168" width="100" height="60" as="geometry"/>
                </mxCell>
                <mxCell id="WAITING_to_W_PVUPDATE" value="triggerID" style="edgeStyle=orthogonalEdgeStyle;rounded=1;orthogonalLoop=1;strokeColor=#FFFFFF;" parent="1" source="WAITING" target="W_PVUPDATE" edge="1">
                    <mxGeometry relative="1" as="geometry"/>
                </mxCell>
                <mxCell id="W_TRIGGER" value="W_TRIGGER" style="rounded=1;whiteSpace=wrap;html=1;strokeColor=#FFFFFF;" parent="1" vertex="1">
                    <mxGeometry x="31" y="168" width="100" height="60" as="geometry"/>
                </mxCell>
                <mxCell id="WAITING_to_W_TRIGGER" value="PV_update" style="edgeStyle=orthogonalEdgeStyle;rounded=1;orthogonalLoop=1;strokeColor=#FFFFFF;" parent="1" source="WAITING" target="W_TRIGGER" edge="1">
                    <mxGeometry x="-0.2143" relative="1" as="geometry">
                        <Array as="points">
                            <mxPoint x="81" y="64"/>
                        </Array>
                        <mxPoint as="offset"/>
                    </mxGeometry>
                </mxCell>
                <mxCell id="2" value="" style="edgeStyle=none;html=1;strokeColor=#FFFFFF;" parent="1" source="SAVING" target="WAITING" edge="1">
                    <mxGeometry relative="1" as="geometry"/>
                </mxCell>
                <mxCell id="11" value="Self&lt;br&gt;Transition" style="edgeLabel;html=1;align=center;verticalAlign=middle;resizable=0;points=[];rounded=1;strokeColor=#FFFFFF;" parent="2" vertex="1" connectable="0">
                    <mxGeometry x="-0.2259" y="-1" relative="1" as="geometry">
                        <mxPoint as="offset"/>
                    </mxGeometry>
                </mxCell>
                <mxCell id="SAVING" value="SAVING" style="rounded=1;whiteSpace=wrap;html=1;strokeColor=#FFFFFF;" parent="1" vertex="1">
                    <mxGeometry x="231" y="168" width="100" height="60" as="geometry"/>
                </mxCell>
                <mxCell id="W_TRIGGER_to_SAVING" value="triggerID" style="edgeStyle=orthogonalEdgeStyle;rounded=1;orthogonalLoop=1;strokeColor=#FFFFFF;" parent="1" source="W_TRIGGER" target="SAVING" edge="1">
                    <mxGeometry relative="1" as="geometry"/>
                </mxCell>
                <mxCell id="3" value="" style="edgeStyle=none;html=1;exitX=0.5;exitY=0;exitDx=0;exitDy=0;strokeColor=#FFFFFF;" parent="1" source="TIMEOUT" target="WAITING" edge="1">
                    <mxGeometry relative="1" as="geometry">
                        <mxPoint x="371" y="294" as="sourcePoint"/>
                        <mxPoint x="367" y="114" as="targetPoint"/>
                    </mxGeometry>
                </mxCell>
                <mxCell id="10" value="Self&lt;br&gt;Transion" style="edgeLabel;html=1;align=center;verticalAlign=middle;resizable=0;points=[];rounded=1;strokeColor=#FFFFFF;" parent="3" vertex="1" connectable="0">
                    <mxGeometry x="-0.1992" y="-1" relative="1" as="geometry">
                        <mxPoint x="-1" y="34" as="offset"/>
                    </mxGeometry>
                </mxCell>
                <mxCell id="TIMEOUT" value="TIMEOUT" style="rounded=1;whiteSpace=wrap;html=1;strokeColor=#FFFFFF;" parent="1" vertex="1">
                    <mxGeometry x="311" y="304" width="100" height="60" as="geometry"/>
                </mxCell>
                <mxCell id="W_TRIGGER_to_TIMEOUT" value="PV_update" style="edgeStyle=orthogonalEdgeStyle;rounded=1;orthogonalLoop=1;strokeColor=#FFFFFF;" parent="1" source="W_TRIGGER" target="TIMEOUT" edge="1">
                    <mxGeometry x="0.3889" relative="1" as="geometry">
                        <Array as="points">
                            <mxPoint x="81" y="334"/>
                        </Array>
                        <mxPoint as="offset"/>
                    </mxGeometry>
                </mxCell>
                <mxCell id="W_PVUPDATE_to_SAVING" value="PV_update" style="edgeStyle=orthogonalEdgeStyle;rounded=1;orthogonalLoop=1;strokeColor=#FFFFFF;" parent="1" source="W_PVUPDATE" target="SAVING" edge="1">
                    <mxGeometry relative="1" as="geometry"/>
                </mxCell>
                <mxCell id="W_PVUPDATE_to_TIMEOUT" value="triggerID" style="edgeStyle=orthogonalEdgeStyle;rounded=1;orthogonalLoop=1;strokeColor=#FFFFFF;" parent="1" source="W_PVUPDATE" target="TIMEOUT" edge="1">
                    <mxGeometry relative="1" as="geometry">
                        <Array as="points">
                            <mxPoint x="591" y="334"/>
                        </Array>
                    </mxGeometry>
                </mxCell>
                <mxCell id="*_to_TIMEOUT" value="timeOut" style="edgeStyle=orthogonalEdgeStyle;rounded=1;orthogonalLoop=1;" parent="1" target="TIMEOUT" edge="1">
                    <mxGeometry relative="1" as="geometry"/>
                </mxCell>
                <mxCell id="4" value="" style="endArrow=classic;html=1;exitX=1;exitY=1;exitDx=0;exitDy=0;entryX=0;entryY=0;entryDx=0;entryDy=0;strokeColor=#FFFFFF;" parent="1" source="W_TRIGGER" target="TIMEOUT" edge="1">
                    <mxGeometry width="50" height="50" relative="1" as="geometry">
                        <mxPoint x="471" y="304" as="sourcePoint"/>
                        <mxPoint x="301" y="304" as="targetPoint"/>
                    </mxGeometry>
                </mxCell>
                <mxCell id="6" value="TIMEOUT" style="edgeLabel;html=1;align=center;verticalAlign=middle;resizable=0;points=[];rounded=1;strokeColor=#FFFFFF;" parent="4" vertex="1" connectable="0">
                    <mxGeometry x="-0.2055" y="1" relative="1" as="geometry">
                        <mxPoint x="8" y="7" as="offset"/>
                    </mxGeometry>
                </mxCell>
                <mxCell id="5" value="" style="endArrow=classic;html=1;exitX=0;exitY=1;exitDx=0;exitDy=0;entryX=1;entryY=0;entryDx=0;entryDy=0;strokeColor=#FFFFFF;" parent="1" source="W_PVUPDATE" target="TIMEOUT" edge="1">
                    <mxGeometry width="50" height="50" relative="1" as="geometry">
                        <mxPoint x="471" y="304" as="sourcePoint"/>
                        <mxPoint x="521" y="254" as="targetPoint"/>
                        <Array as="points"/>
                    </mxGeometry>
                </mxCell>
                <mxCell id="9" value="TIMEOUT" style="edgeLabel;html=1;align=center;verticalAlign=middle;resizable=0;points=[];rounded=1;strokeColor=#FFFFFF;" parent="5" vertex="1" connectable="0">
                    <mxGeometry x="-0.197" relative="1" as="geometry">
                        <mxPoint y="1" as="offset"/>
                    </mxGeometry>
                </mxCell>
            </root>
        </mxGraphModel>
    </diagram>
</mxfile>